<?xml version="1.0" encoding="UTF-8"?>
<!DOCTYPE svg PUBLIC "-//W3C//DTD SVG 1.1//EN" "http://www.w3.org/Graphics/SVG/1.1/DTD/svg11.dtd">
<svg xmlns="http://www.w3.org/2000/svg" version="1.1" width="655px" height="655px" style="shape-rendering:geometricPrecision; text-rendering:geometricPrecision; image-rendering:optimizeQuality; fill-rule:evenodd; clip-rule:evenodd" xmlns:xlink="http://www.w3.org/1999/xlink">
<g><path style="opacity:1" fill="#842129" d="M 305.5,-0.5 C 320.167,-0.5 334.833,-0.5 349.5,-0.5C 466.103,11.193 554.27,67.193 614,167.5C 636.943,210.15 650.443,255.484 654.5,303.5C 654.5,319.167 654.5,334.833 654.5,350.5C 644.172,454.362 596.839,536.528 512.5,597C 463.903,629.922 410.236,648.422 351.5,652.5C 335.467,653.664 319.467,653.664 303.5,652.5C 206.584,644.136 128.084,602.136 68,526.5C 4.20582,439.523 -14.4608,343.523 12,238.5C 44.4648,133.034 111.965,59.8676 214.5,19C 244.106,8.44745 274.439,1.94745 305.5,-0.5 Z"/></g>
<g><path style="opacity:1" fill="#e8e5e5" d="M 323.5,33.5 C 325.5,33.5 327.5,33.5 329.5,33.5C 330.277,42.8123 330.61,52.1456 330.5,61.5C 328.167,61.5 325.833,61.5 323.5,61.5C 323.666,56.4889 323.499,51.4889 323,46.5C 320.637,51.2486 317.804,55.5819 314.5,59.5C 310.823,55.9804 307.657,51.9804 305,47.5C 304.612,52.5107 304.778,57.5107 305.5,62.5C 303.167,62.5 300.833,62.5 298.5,62.5C 298.333,53.1594 298,43.826 297.5,34.5C 299.527,34.3379 301.527,34.5045 303.5,35C 307.371,39.9072 310.871,45.0739 314,50.5C 317.179,44.8061 320.345,39.1394 323.5,33.5 Z"/></g>
<g><path style="opacity:1" fill="#ebe7e7" d="M 361.5,36.5 C 369.815,34.7455 376.648,37.0788 382,43.5C 385.562,58.9424 379.395,66.109 363.5,65C 354.908,61.3195 351.408,54.8195 353,45.5C 354.953,41.5342 357.786,38.5342 361.5,36.5 Z"/></g>
<g><path style="opacity:1" fill="#eae7e7" d="M 257.5,40.5 C 273.844,41.3369 279.011,49.3369 273,64.5C 262.758,73.3437 253.758,72.3437 246,61.5C 243.598,50.9644 247.431,43.9644 257.5,40.5 Z"/></g>
<g><path style="opacity:1" fill="#88242c" d="M 363.5,42.5 C 373.157,40.9917 377.323,44.9917 376,54.5C 370.667,61.1667 365.333,61.1667 360,54.5C 358.745,49.7378 359.912,45.7378 363.5,42.5 Z"/></g>
<g><path style="opacity:1" fill="#e9e4e6" d="M 409.5,45.5 C 417.558,46.4611 424.725,49.4611 431,54.5C 431.667,56.5 431.667,58.5 431,60.5C 429.5,62 428,63.5 426.5,65C 430.456,75.3911 426.789,79.3911 415.5,77C 411.129,75.5987 406.796,74.0987 402.5,72.5C 401.369,70.9255 401.202,69.2588 402,67.5C 404.41,60.1012 406.91,52.7679 409.5,45.5 Z"/></g>
<g><path style="opacity:1" fill="#88262d" d="M 257.5,46.5 C 266.36,46.5254 269.86,50.8588 268,59.5C 265.72,63.7684 262.22,65.2684 257.5,64C 255.333,63.1667 253.833,61.6667 253,59.5C 252.333,56.5 252.333,53.5 253,50.5C 254.667,49.2668 256.167,47.9335 257.5,46.5 Z"/></g>
<g><path style="opacity:1" fill="#8d2c33" d="M 414.5,52.5 C 417.573,53.199 420.573,54.199 423.5,55.5C 424.856,58.4466 423.856,60.1132 420.5,60.5C 414.539,60.523 412.539,57.8563 414.5,52.5 Z"/></g>
<g><path style="opacity:1" fill="#ebe6e4" d="M 220.5,52.5 C 221.725,53.937 222.725,55.6036 223.5,57.5C 220.681,58.7427 218.014,60.2427 215.5,62C 218.357,68.2349 221.024,74.5682 223.5,81C 222.092,83.9582 219.925,84.7915 217,83.5C 214.751,76.7235 211.751,70.3902 208,64.5C 205.773,65.3632 203.607,66.3632 201.5,67.5C 200.05,66.3446 199.05,64.8446 198.5,63C 205.772,59.1957 213.105,55.6957 220.5,52.5 Z"/></g>
<g><path style="opacity:1" fill="#8a272d" d="M 410.5,63.5 C 414.064,63.6876 417.397,64.6876 420.5,66.5C 421.452,68.0453 421.785,69.712 421.5,71.5C 417.384,71.4593 413.384,70.7927 409.5,69.5C 409.833,67.5 410.167,65.5 410.5,63.5 Z"/></g>
<g><path style="opacity:1" fill="#e6e1e5" d="M 456.5,63.5 C 459.386,63.6099 461.72,64.7766 463.5,67C 459.301,75.2301 454.968,83.3968 450.5,91.5C 448.205,90.8645 446.539,89.5311 445.5,87.5C 449.176,79.4834 452.842,71.4834 456.5,63.5 Z"/></g>
<g><path style="opacity:1" fill="#ebe8e7" d="M 176.5,73.5 C 181.194,78.4007 185.027,84.0673 188,90.5C 189.221,97.8912 186.388,103.058 179.5,106C 173.533,107.772 168.699,106.272 165,101.5C 161.915,96.9998 159.082,92.3331 156.5,87.5C 157.579,85.457 159.246,84.1237 161.5,83.5C 165.167,88.8333 168.833,94.1667 172.5,99.5C 179.353,101.148 182.186,98.4811 181,91.5C 177.782,86.897 174.948,82.0637 172.5,77C 173.686,75.5879 175.019,74.4212 176.5,73.5 Z"/></g>
<g><path style="opacity:1" fill="#eae7e6" d="M 486.5,79.5 C 488.613,80.5482 490.28,82.0482 491.5,84C 487.754,90.1553 483.754,96.1553 479.5,102C 483.5,104.667 487.5,107.333 491.5,110C 490.696,111.771 489.529,113.271 488,114.5C 482.167,110.667 476.333,106.833 470.5,103C 475.967,95.2245 481.3,87.3912 486.5,79.5 Z"/></g>
<g><path style="opacity:1" fill="#e9e5e5" d="M 522.5,105.5 C 527.664,110.496 532.997,115.329 538.5,120C 537.44,121.298 536.274,122.465 535,123.5C 530.764,121.27 527.097,118.27 524,114.5C 522.647,115.685 521.48,117.019 520.5,118.5C 522.854,121.688 525.688,124.355 529,126.5C 528.983,128.568 527.983,130.234 526,131.5C 523.273,128.269 520.106,125.603 516.5,123.5C 515.019,124.48 513.685,125.647 512.5,127C 515.701,130.536 519.201,133.703 523,136.5C 522.983,138.568 521.983,140.234 520,141.5C 514.325,136.656 508.825,131.656 503.5,126.5C 510.225,119.779 516.558,112.779 522.5,105.5 Z"/></g>
<g><path style="opacity:1" fill="#e9e4e5" d="M 126.5,109.5 C 136.845,112.783 146.845,116.95 156.5,122C 154.391,123.141 152.558,124.641 151,126.5C 149.013,124.912 146.846,124.079 144.5,124C 142,126.5 139.5,129 137,131.5C 137.253,134.133 137.253,136.8 137,139.5C 135.488,140.257 134.154,141.257 133,142.5C 129.045,133.301 125.878,123.801 123.5,114C 124.315,112.357 125.315,110.857 126.5,109.5 Z"/></g>
<g><path style="opacity:1" fill="#8b252e" d="M 131.5,117.5 C 134.262,118.38 136.929,119.546 139.5,121C 137.667,122.833 135.833,124.667 134,126.5C 133.151,123.479 132.317,120.479 131.5,117.5 Z"/></g>
<g><path style="opacity:1" fill="#efeeed" d="M 420.5,379.5 C 421.674,378.486 422.34,377.153 422.5,375.5C 435.221,344.741 447.888,314.075 460.5,283.5C 462.245,281.967 463.245,279.967 463.5,277.5C 473.423,254.6 483.089,231.433 492.5,208C 511.833,207.333 531.167,207.333 550.5,208C 551.833,210.333 551.833,212.667 550.5,215C 544.158,215.475 537.824,215.975 531.5,216.5C 530.833,250.665 530.5,284.998 530.5,319.5C 530.5,354.173 531.167,388.507 532.5,422.5C 538.845,422.653 545.178,422.986 551.5,423.5C 551.768,426.119 551.435,428.619 550.5,431C 525.167,431.667 499.833,431.667 474.5,431C 473.212,428.534 473.212,426.034 474.5,423.5C 480.798,422.504 487.132,422.17 493.5,422.5C 494.222,422.082 494.722,421.416 495,420.5C 495.833,356.164 495.667,291.831 494.5,227.5C 493.893,227.624 493.56,227.957 493.5,228.5C 465.085,295.895 436.752,363.395 408.5,431C 407,431.167 405.5,431.333 404,431.5C 402.019,431.371 400.353,430.704 399,429.5C 384.579,394.203 370.079,359.203 355.5,324.5C 355.34,322.847 354.674,321.514 353.5,320.5C 341.166,289.677 328.333,259.01 315,228.5C 314.5,293.166 314.333,357.832 314.5,422.5C 320.84,422.849 327.173,423.349 333.5,424C 334.435,426.381 334.768,428.881 334.5,431.5C 303.832,431.667 273.165,431.5 242.5,431C 241.212,428.534 241.212,426.034 242.5,423.5C 248.128,422.505 253.794,422.171 259.5,422.5C 260.746,419.707 260.413,417.04 258.5,414.5C 257.306,410.879 256.306,407.212 255.5,403.5C 255.125,401.302 254.458,399.302 253.5,397.5C 249.107,380.715 243.774,364.215 237.5,348C 210.5,347.333 183.5,347.333 156.5,348C 148.439,372.645 140.772,397.478 133.5,422.5C 139.176,422.334 144.843,422.501 150.5,423C 152.68,425.418 153.013,428.084 151.5,431C 135.503,431.5 119.503,431.667 103.5,431.5C 103.274,428.751 103.607,426.084 104.5,423.5C 111.055,422.816 117.555,422.149 124,421.5C 136.5,383.045 148.667,344.712 160.5,306.5C 161.674,305.486 162.34,304.153 162.5,302.5C 163.434,297.7 164.767,293.034 166.5,288.5C 167.537,287.07 168.204,285.403 168.5,283.5C 172.496,270.503 176.496,257.503 180.5,244.5C 181.537,243.07 182.204,241.403 182.5,239.5C 184.953,228.574 188.287,217.908 192.5,207.5C 205.696,206.174 218.863,206.174 232,207.5C 254.83,278.815 277.663,350.148 300.5,421.5C 302.396,422.466 304.396,422.799 306.5,422.5C 306.5,353.5 306.5,284.5 306.5,215.5C 299.504,215.106 292.504,214.773 285.5,214.5C 285.5,212.167 285.5,209.833 285.5,207.5C 305.743,207.173 325.909,207.507 346,208.5C 370.683,266.013 395.35,323.346 420,380.5C 420.399,380.272 420.565,379.938 420.5,379.5 Z"/></g>
<g><path style="opacity:1" fill="#9a2229" d="M 531.5,216.5 C 531.17,285.238 531.504,353.904 532.5,422.5C 531.167,388.507 530.5,354.173 530.5,319.5C 530.5,284.998 530.833,250.665 531.5,216.5 Z"/></g>
<g><path style="opacity:1" fill="#86232b" d="M 197.5,220.5 C 210.81,259.769 223.143,299.436 234.5,339.5C 209.5,339.5 184.5,339.5 159.5,339.5C 171.402,299.551 184.068,259.884 197.5,220.5 Z"/></g>
<g><path style="opacity:1" fill="#c7bfd7" d="M 493.5,422.5 C 493.5,357.833 493.5,293.167 493.5,228.5C 493.56,227.957 493.893,227.624 494.5,227.5C 495.667,291.831 495.833,356.164 495,420.5C 494.722,421.416 494.222,422.082 493.5,422.5 Z"/></g>
<g><path style="opacity:1" fill="#9a71a5" d="M 182.5,239.5 C 182.204,241.403 181.537,243.07 180.5,244.5C 180.12,242.302 180.787,240.635 182.5,239.5 Z"/></g>
<g><path style="opacity:1" fill="#9a6a95" d="M 463.5,277.5 C 463.245,279.967 462.245,281.967 460.5,283.5C 460.755,281.033 461.755,279.033 463.5,277.5 Z"/></g>
<g><path style="opacity:1" fill="#9971a6" d="M 168.5,283.5 C 168.204,285.403 167.537,287.07 166.5,288.5C 166.12,286.302 166.787,284.635 168.5,283.5 Z"/></g>
<g><path style="opacity:1" fill="#96699e" d="M 162.5,302.5 C 162.34,304.153 161.674,305.486 160.5,306.5C 160.229,304.62 160.896,303.287 162.5,302.5 Z"/></g>
<g><path style="opacity:1" fill="#9f7cb2" d="M 353.5,320.5 C 354.674,321.514 355.34,322.847 355.5,324.5C 353.896,323.713 353.229,322.38 353.5,320.5 Z"/></g>
<g><path style="opacity:1" fill="#9870a7" d="M 422.5,375.5 C 422.34,377.153 421.674,378.486 420.5,379.5C 420.229,377.62 420.896,376.287 422.5,375.5 Z"/></g>
<g><path style="opacity:1" fill="#986fa2" d="M 253.5,397.5 C 254.458,399.302 255.125,401.302 255.5,403.5C 253.72,402.01 253.054,400.01 253.5,397.5 Z"/></g>
<g><path style="opacity:1" fill="#935885" d="M 258.5,414.5 C 260.413,417.04 260.746,419.707 259.5,422.5C 259.167,419.833 258.833,417.167 258.5,414.5 Z"/></g>
<g><path style="opacity:1" fill="#eae6e7" d="M 80.5,448.5 C 83.1213,448.477 84.4546,449.811 84.5,452.5C 82.0231,458.12 79.0231,463.453 75.5,468.5C 76.0253,469.192 76.6919,469.692 77.5,470C 83.1667,470.333 88.8333,470.667 94.5,471C 95.4303,472.194 96.0969,473.527 96.5,475C 89.0869,480.127 81.2536,484.627 73,488.5C 70.3301,487.069 69.4968,485.069 70.5,482.5C 74.6597,480.588 78.6597,478.421 82.5,476C 66.123,478.667 63.123,473.667 73.5,461C 69.2247,461.967 65.2247,463.8 61.5,466.5C 59.9373,465.055 58.604,463.389 57.5,461.5C 65.067,456.886 72.7336,452.553 80.5,448.5 Z"/></g>
<g><path style="opacity:1" fill="#e7e2e4" d="M 593.5,455.5 C 595.564,456.058 597.23,457.225 598.5,459C 595.376,464.748 592.376,470.582 589.5,476.5C 581.009,472.422 572.676,468.088 564.5,463.5C 565.136,461.205 566.469,459.539 568.5,458.5C 574.949,461.224 581.283,464.224 587.5,467.5C 589.509,463.482 591.509,459.482 593.5,455.5 Z"/></g>
<g><path style="opacity:1" fill="#eae5e4" d="M 547.5,490.5 C 558.066,491.846 568.399,494.013 578.5,497C 576.707,498.78 575.04,500.613 573.5,502.5C 571.618,501.907 569.785,501.24 568,500.5C 565.752,503.328 563.752,506.328 562,509.5C 561.709,511.783 562.209,513.95 563.5,516C 562.964,518.24 561.797,520.073 560,521.5C 554.634,512.964 549.468,504.297 544.5,495.5C 545.763,493.971 546.763,492.305 547.5,490.5 Z"/></g>
<g><path style="opacity:1" fill="#eae6e6" d="M 108.5,494.5 C 109.496,494.414 110.329,494.748 111,495.5C 114.642,500.642 118.475,505.642 122.5,510.5C 121.084,512.139 119.417,512.973 117.5,513C 114.667,509.5 111.833,506 109,502.5C 107.647,503.685 106.48,505.019 105.5,506.5C 107.711,509.756 110.045,512.922 112.5,516C 111.333,517.167 110.167,518.333 109,519.5C 106.023,516.869 103.523,513.869 101.5,510.5C 99.288,509.953 97.6213,510.953 96.5,513.5C 99.3092,517.477 102.309,521.31 105.5,525C 103.91,526.046 102.41,527.213 101,528.5C 96.6903,522.689 92.1903,517.023 87.5,511.5C 94.2294,505.431 101.229,499.764 108.5,494.5 Z"/></g>
<g><path style="opacity:1" fill="#8b252e" d="M 552.5,498.5 C 552.735,497.903 553.235,497.57 554,497.5C 556.749,497.974 559.249,498.974 561.5,500.5C 560.139,502.028 558.972,503.695 558,505.5C 556.303,502.98 554.47,500.647 552.5,498.5 Z"/></g>
<g><path style="opacity:1" fill="#e9e5e6" d="M 526.5,517.5 C 528.595,517.76 529.928,518.926 530.5,521C 529.039,523.298 527.372,525.465 525.5,527.5C 530.152,532.652 534.985,537.652 540,542.5C 539.702,545.793 537.869,547.293 534.5,547C 529.667,542.167 524.833,537.333 520,532.5C 518,534.5 516,536.5 514,538.5C 512.647,537.315 511.48,535.981 510.5,534.5C 515.855,528.813 521.188,523.146 526.5,517.5 Z"/></g>
<g><path style="opacity:1" fill="#eae7e6" d="M 136.5,526.5 C 143.439,530.426 148.105,536.092 150.5,543.5C 149.944,549.225 146.777,552.558 141,553.5C 139.893,553.415 138.893,553.081 138,552.5C 137.612,556.219 136.945,559.886 136,563.5C 134.667,562.167 133.333,560.833 132,559.5C 131.667,555.833 131.333,552.167 131,548.5C 130,547.5 129,546.5 128,545.5C 126.71,547.792 125.043,549.792 123,551.5C 121.315,549.983 119.815,548.316 118.5,546.5C 124.152,539.515 130.152,532.848 136.5,526.5 Z"/></g>
<g><path style="opacity:1" fill="#89242f" d="M 137.5,535.5 C 143.029,537.188 144.696,540.688 142.5,546C 137.834,547.497 134.5,545.997 132.5,541.5C 134.19,539.481 135.856,537.481 137.5,535.5 Z"/></g>
<g><path style="opacity:1" fill="#eae6e6" d="M 494.5,546.5 C 500.631,553.403 506.297,560.737 511.5,568.5C 510.242,571.5 508.242,572.5 505.5,571.5C 500.358,564.523 495.024,557.69 489.5,551C 491.618,549.951 493.284,548.451 494.5,546.5 Z"/></g>
<g><path style="opacity:1" fill="#eae5e5" d="M 168.5,559.5 C 178.484,558.154 185.484,561.988 189.5,571C 188.056,573.034 186.056,573.868 183.5,573.5C 182.44,568.778 179.44,566.112 174.5,565.5C 166.662,567.538 164.495,572.204 168,579.5C 170.984,582.1 174.484,583.1 178.5,582.5C 178.833,584.5 179.167,586.5 179.5,588.5C 169.93,590.068 163.43,586.401 160,577.5C 159.262,573.739 159.595,570.072 161,566.5C 163.396,563.933 165.896,561.6 168.5,559.5 Z"/></g>
<g><path style="opacity:1" fill="#e9e4e6" d="M 465.5,566.5 C 468.5,566.5 471.5,566.5 474.5,566.5C 474.42,571.707 471.753,573.874 466.5,573C 460.426,575.899 458.926,580.399 462,586.5C 465.795,589.803 469.962,590.303 474.5,588C 475.574,587.261 476.241,586.261 476.5,585C 475.244,583.155 474.244,581.155 473.5,579C 474.286,577.012 475.786,575.846 478,575.5C 485.204,581.71 485.037,587.544 477.5,593C 464.131,599.619 456.131,595.619 453.5,581C 454.761,573.905 458.761,569.072 465.5,566.5 Z"/></g>
<g><path style="opacity:1" fill="#e8e6e9" d="M 216.5,581.5 C 218.746,582.455 221.079,583.122 223.5,583.5C 223.666,593.839 223.5,604.172 223,614.5C 221.559,613.74 220.059,613.074 218.5,612.5C 217.786,609.973 217.12,607.473 216.5,605C 212.927,603.629 209.427,602.129 206,600.5C 203.083,605.253 199.583,605.753 195.5,602C 203.052,595.613 210.052,588.78 216.5,581.5 Z"/></g>
<g><path style="opacity:1" fill="#eae5e2" d="M 426.5,585.5 C 427.978,585.238 429.311,585.571 430.5,586.5C 433.333,593.5 436.167,600.5 439,607.5C 439.781,608.944 439.614,610.277 438.5,611.5C 436.941,612.074 435.441,612.74 434,613.5C 430.496,604.983 426.996,596.483 423.5,588C 424.571,587.148 425.571,586.315 426.5,585.5 Z"/></g>
<g><path style="opacity:1" fill="#8c292c" d="M 216.5,590.5 C 217.803,593.355 217.803,596.355 216.5,599.5C 214.453,598.815 212.786,597.649 211.5,596C 213.351,594.317 215.017,592.484 216.5,590.5 Z"/></g>
<g><path style="opacity:1" fill="#eae5e5" d="M 251.5,595.5 C 258.871,595.926 265.871,597.759 272.5,601C 280.337,610.969 278.67,618.969 267.5,625C 264.167,625.667 260.833,625.667 257.5,625C 253.855,624.005 250.188,623.172 246.5,622.5C 248.005,613.476 249.672,604.476 251.5,595.5 Z"/></g>
<g><path style="opacity:1" fill="#eae6e5" d="M 387.5,597.5 C 404.475,596.289 410.309,603.622 405,619.5C 398.408,624.529 390.908,627.196 382.5,627.5C 380.555,619.005 378.555,610.505 376.5,602C 376.905,601.055 377.572,600.388 378.5,600C 381.742,599.594 384.742,598.761 387.5,597.5 Z"/></g>
<g><path style="opacity:1" fill="#88242e" d="M 257.5,602.5 C 268.903,602.365 272.403,607.365 268,617.5C 263.697,619.825 259.197,620.159 254.5,618.5C 255.285,613.124 256.285,607.791 257.5,602.5 Z"/></g>
<g><path style="opacity:1" fill="#87232d" d="M 386.5,603.5 C 396.6,601.44 401.1,605.44 400,615.5C 396.572,618.904 392.405,620.571 387.5,620.5C 387.33,615.148 386.33,609.982 384.5,605C 385.416,604.722 386.082,604.222 386.5,603.5 Z"/></g>
<g><path style="opacity:1" fill="#eae5e6" d="M 306.5,604.5 C 323.622,602.777 330.122,610.11 326,626.5C 316.56,636.004 307.56,635.67 299,625.5C 297.543,621.259 297.209,616.926 298,612.5C 300.157,609.024 302.99,606.357 306.5,604.5 Z"/></g>
<g><path style="opacity:1" fill="#87232c" d="M 308.5,610.5 C 318.386,608.883 322.219,612.883 320,622.5C 315.716,628.262 311.05,628.595 306,623.5C 303.458,618.438 304.292,614.105 308.5,610.5 Z"/></g>
<g><path style="opacity:0.004" fill="#f0f1f0" d="M 15.5,611.5 C 16.8333,612.167 16.8333,612.167 15.5,611.5 Z"/></g>
<g><path style="opacity:0.004" fill="#f0f1f0" d="M 44.5,622.5 C 45.8333,623.167 45.8333,623.167 44.5,622.5 Z"/></g>
<g><path style="opacity:0.132" fill="#e0e3e8" d="M 23.5,654.5 C 25.8333,653.167 28.1667,653.167 30.5,654.5C 28.1667,654.5 25.8333,654.5 23.5,654.5 Z"/></g>
<g><path style="opacity:0.014" fill="#dde1e5" d="M 51.5,654.5 C 52.8333,653.167 54.1667,653.167 55.5,654.5C 54.1667,654.5 52.8333,654.5 51.5,654.5 Z"/></g>
<g><path style="opacity:0.004" fill="#dde0e5" d="M 64.5,654.5 C 77.5,653.167 90.5,653.167 103.5,654.5C 90.5,654.5 77.5,654.5 64.5,654.5 Z"/></g>
<g><path style="opacity:0.01" fill="#dde0e5" d="M 106.5,654.5 C 151.167,653.167 195.833,653.167 240.5,654.5C 195.833,654.5 151.167,654.5 106.5,654.5 Z"/></g>
<g><path style="opacity:0.18" fill="#dcdadf" d="M 303.5,652.5 C 319.467,653.664 335.467,653.664 351.5,652.5C 358.833,653.167 366.167,653.833 373.5,654.5C 347.5,654.5 321.5,654.5 295.5,654.5C 298.167,653.833 300.833,653.167 303.5,652.5 Z"/></g>
<g><path style="opacity:0.021" fill="#dde0e5" d="M 383.5,654.5 C 385.167,653.167 386.833,653.167 388.5,654.5C 386.833,654.5 385.167,654.5 383.5,654.5 Z"/></g>
<g><path style="opacity:0.004" fill="#dde0e5" d="M 444.5,654.5 C 448.5,653.167 452.5,653.167 456.5,654.5C 452.5,654.5 448.5,654.5 444.5,654.5 Z"/></g>
<g><path style="opacity:0.017" fill="#dde0e5" d="M 588.5,654.5 C 589.833,653.167 591.167,653.167 592.5,654.5C 591.167,654.5 589.833,654.5 588.5,654.5 Z"/></g>
<g><path style="opacity:0.085" fill="#e1e3e8" d="M 627.5,654.5 C 628.833,653.167 630.167,653.167 631.5,654.5C 630.167,654.5 628.833,654.5 627.5,654.5 Z"/></g>
</svg>
